<mxfile host="app.diagrams.net" modified="2023-10-23T11:08:38.938Z" agent="Mozilla/5.0 (Windows NT 10.0; Win64; x64) AppleWebKit/537.36 (KHTML, like Gecko) Chrome/118.0.0.0 Safari/537.36" etag="ViEsL7SW1Ze7zSnhhYiI" version="22.0.6" type="github">
  <diagram name="第 1 页" id="ytVl9bIwSj31jDskWyxF">
    <mxGraphModel dx="17071" dy="20472" grid="0" gridSize="10" guides="1" tooltips="1" connect="1" arrows="1" fold="1" page="1" pageScale="1" pageWidth="827" pageHeight="1169" math="1" shadow="0">
      <root>
        <mxCell id="0" />
        <mxCell id="1" parent="0" />
        <mxCell id="qTfw3yNx1sF0ID5Y9VNr-66" value="" style="rounded=1;whiteSpace=wrap;html=1;fillColor=#0C84C6;strokeColor=#9673a6;" vertex="1" parent="1">
          <mxGeometry x="-11035.25" y="-17490" width="2090" height="2010" as="geometry" />
        </mxCell>
        <mxCell id="qTfw3yNx1sF0ID5Y9VNr-67" value="" style="ellipse;whiteSpace=wrap;html=1;aspect=fixed;strokeWidth=5;" vertex="1" parent="1">
          <mxGeometry x="-10655.75" y="-17266.18" width="274.5" height="274.5" as="geometry" />
        </mxCell>
        <mxCell id="qTfw3yNx1sF0ID5Y9VNr-68" value="" style="ellipse;whiteSpace=wrap;html=1;aspect=fixed;strokeWidth=5;" vertex="1" parent="1">
          <mxGeometry x="-10655.75" y="-16884.31" width="274.5" height="274.5" as="geometry" />
        </mxCell>
        <mxCell id="qTfw3yNx1sF0ID5Y9VNr-69" value="&lt;font size=&quot;1&quot; style=&quot;&quot;&gt;&lt;b style=&quot;font-size: 80px;&quot;&gt;$$x_{1}$$&lt;/b&gt;&lt;/font&gt;" style="text;html=1;strokeColor=none;fillColor=none;align=center;verticalAlign=middle;whiteSpace=wrap;rounded=0;strokeWidth=5;" vertex="1" parent="1">
          <mxGeometry x="-10566.000000000004" y="-17203.93" width="95" height="150" as="geometry" />
        </mxCell>
        <mxCell id="qTfw3yNx1sF0ID5Y9VNr-70" value="" style="ellipse;whiteSpace=wrap;html=1;aspect=fixed;strokeWidth=5;" vertex="1" parent="1">
          <mxGeometry x="-10645.75" y="-16340.310000000001" width="274.5" height="274.5" as="geometry" />
        </mxCell>
        <mxCell id="qTfw3yNx1sF0ID5Y9VNr-71" value="" style="ellipse;whiteSpace=wrap;html=1;aspect=fixed;strokeWidth=5;" vertex="1" parent="1">
          <mxGeometry x="-10635.75" y="-15958.310000000001" width="274.5" height="274.5" as="geometry" />
        </mxCell>
        <mxCell id="qTfw3yNx1sF0ID5Y9VNr-72" value="&lt;font size=&quot;1&quot; style=&quot;&quot;&gt;&lt;b style=&quot;font-size: 80px;&quot;&gt;$$x_{2}$$&lt;/b&gt;&lt;/font&gt;" style="text;html=1;strokeColor=none;fillColor=none;align=center;verticalAlign=middle;whiteSpace=wrap;rounded=0;strokeWidth=5;" vertex="1" parent="1">
          <mxGeometry x="-10567.75" y="-16822.06" width="96.75" height="150" as="geometry" />
        </mxCell>
        <mxCell id="qTfw3yNx1sF0ID5Y9VNr-73" value="&lt;font size=&quot;1&quot; style=&quot;&quot;&gt;&lt;b style=&quot;font-size: 80px;&quot;&gt;$$x_{n-1}$$&lt;/b&gt;&lt;/font&gt;" style="text;html=1;strokeColor=none;fillColor=none;align=center;verticalAlign=middle;whiteSpace=wrap;rounded=0;strokeWidth=5;" vertex="1" parent="1">
          <mxGeometry x="-10566" y="-16285.18" width="115" height="150" as="geometry" />
        </mxCell>
        <mxCell id="qTfw3yNx1sF0ID5Y9VNr-74" value="&lt;font size=&quot;1&quot; style=&quot;&quot;&gt;&lt;b style=&quot;font-size: 80px;&quot;&gt;$$x_{n}$$&lt;/b&gt;&lt;/font&gt;" style="text;html=1;strokeColor=none;fillColor=none;align=center;verticalAlign=middle;whiteSpace=wrap;rounded=0;strokeWidth=5;" vertex="1" parent="1">
          <mxGeometry x="-10546.000000000004" y="-15905.18" width="95" height="150" as="geometry" />
        </mxCell>
        <mxCell id="qTfw3yNx1sF0ID5Y9VNr-75" value="" style="endArrow=classic;html=1;rounded=0;strokeWidth=10;endSize=50;endFill=1;exitX=1;exitY=0.5;exitDx=0;exitDy=0;" edge="1" parent="1" source="qTfw3yNx1sF0ID5Y9VNr-67">
          <mxGeometry width="50" height="50" relative="1" as="geometry">
            <mxPoint x="-10755.75" y="-17130" as="sourcePoint" />
            <mxPoint x="-9825.75" y="-16560" as="targetPoint" />
          </mxGeometry>
        </mxCell>
        <mxCell id="qTfw3yNx1sF0ID5Y9VNr-76" value="" style="endArrow=classic;html=1;rounded=0;strokeWidth=10;endSize=50;endFill=1;exitX=1;exitY=0.5;exitDx=0;exitDy=0;" edge="1" parent="1" source="qTfw3yNx1sF0ID5Y9VNr-68">
          <mxGeometry width="50" height="50" relative="1" as="geometry">
            <mxPoint x="-10765.75" y="-16750" as="sourcePoint" />
            <mxPoint x="-9895.75" y="-16490" as="targetPoint" />
          </mxGeometry>
        </mxCell>
        <mxCell id="qTfw3yNx1sF0ID5Y9VNr-77" value="" style="endArrow=classic;html=1;rounded=0;strokeWidth=10;endSize=50;endFill=1;exitX=1;exitY=0.5;exitDx=0;exitDy=0;" edge="1" parent="1" source="qTfw3yNx1sF0ID5Y9VNr-70">
          <mxGeometry width="50" height="50" relative="1" as="geometry">
            <mxPoint x="-10785.75" y="-16200" as="sourcePoint" />
            <mxPoint x="-9905.75" y="-16350" as="targetPoint" />
          </mxGeometry>
        </mxCell>
        <mxCell id="qTfw3yNx1sF0ID5Y9VNr-78" value="" style="endArrow=classic;html=1;rounded=0;strokeWidth=10;endSize=50;endFill=1;exitX=1;exitY=0.5;exitDx=0;exitDy=0;" edge="1" parent="1" source="qTfw3yNx1sF0ID5Y9VNr-71">
          <mxGeometry width="50" height="50" relative="1" as="geometry">
            <mxPoint x="-10765.75" y="-15800" as="sourcePoint" />
            <mxPoint x="-9835.75" y="-16290" as="targetPoint" />
          </mxGeometry>
        </mxCell>
        <mxCell id="qTfw3yNx1sF0ID5Y9VNr-79" value="" style="ellipse;whiteSpace=wrap;html=1;aspect=fixed;strokeWidth=5;" vertex="1" parent="1">
          <mxGeometry x="-9765.75" y="-17070" width="274.5" height="274.5" as="geometry" />
        </mxCell>
        <mxCell id="qTfw3yNx1sF0ID5Y9VNr-80" value="&lt;font size=&quot;1&quot; style=&quot;&quot;&gt;&lt;b style=&quot;font-size: 80px;&quot;&gt;$$b_{1}$$&lt;/b&gt;&lt;/font&gt;" style="text;html=1;strokeColor=none;fillColor=none;align=center;verticalAlign=middle;whiteSpace=wrap;rounded=0;strokeWidth=5;" vertex="1" parent="1">
          <mxGeometry x="-9662.500000000004" y="-17009" width="95" height="150" as="geometry" />
        </mxCell>
        <mxCell id="qTfw3yNx1sF0ID5Y9VNr-81" value="" style="endArrow=classic;html=1;rounded=0;strokeWidth=10;exitX=0.5;exitY=1;exitDx=0;exitDy=0;endSize=50;endFill=1;entryX=0.5;entryY=0;entryDx=0;entryDy=0;" edge="1" parent="1" source="qTfw3yNx1sF0ID5Y9VNr-79">
          <mxGeometry width="50" height="50" relative="1" as="geometry">
            <mxPoint x="-10489" y="-16822.2" as="sourcePoint" />
            <mxPoint x="-9628.5" y="-16591" as="targetPoint" />
          </mxGeometry>
        </mxCell>
        <mxCell id="qTfw3yNx1sF0ID5Y9VNr-82" value="&lt;font size=&quot;1&quot; style=&quot;&quot;&gt;&lt;b style=&quot;font-size: 80px;&quot;&gt;$$\vdots$$&lt;/b&gt;&lt;/font&gt;" style="text;html=1;strokeColor=none;fillColor=none;align=center;verticalAlign=middle;whiteSpace=wrap;rounded=0;strokeWidth=5;" vertex="1" parent="1">
          <mxGeometry x="-10576" y="-16545.18" width="115" height="150" as="geometry" />
        </mxCell>
        <mxCell id="qTfw3yNx1sF0ID5Y9VNr-83" value="" style="ellipse;whiteSpace=wrap;html=1;aspect=fixed;strokeWidth=5;" vertex="1" parent="1">
          <mxGeometry x="-9765.75" y="-16602.25" width="274.5" height="274.5" as="geometry" />
        </mxCell>
        <mxCell id="qTfw3yNx1sF0ID5Y9VNr-84" value="&lt;font size=&quot;1&quot; style=&quot;&quot;&gt;&lt;b style=&quot;font-size: 80px;&quot;&gt;$$y$$&lt;/b&gt;&lt;/font&gt;" style="text;html=1;strokeColor=none;fillColor=none;align=center;verticalAlign=middle;whiteSpace=wrap;rounded=0;strokeWidth=5;" vertex="1" parent="1">
          <mxGeometry x="-9670.000000000004" y="-16540" width="95" height="150" as="geometry" />
        </mxCell>
        <mxCell id="qTfw3yNx1sF0ID5Y9VNr-85" value="&lt;font size=&quot;1&quot; style=&quot;&quot;&gt;&lt;b style=&quot;font-size: 80px;&quot;&gt;$$w_{1}$$&lt;/b&gt;&lt;/font&gt;" style="text;html=1;strokeColor=none;fillColor=none;align=center;verticalAlign=middle;whiteSpace=wrap;rounded=0;strokeWidth=5;" vertex="1" parent="1">
          <mxGeometry x="-10145.750000000004" y="-17108" width="95" height="150" as="geometry" />
        </mxCell>
        <mxCell id="qTfw3yNx1sF0ID5Y9VNr-86" value="&lt;font size=&quot;1&quot; style=&quot;&quot;&gt;&lt;b style=&quot;font-size: 80px;&quot;&gt;$$w_{2}$$&lt;/b&gt;&lt;/font&gt;" style="text;html=1;strokeColor=none;fillColor=none;align=center;verticalAlign=middle;whiteSpace=wrap;rounded=0;strokeWidth=5;" vertex="1" parent="1">
          <mxGeometry x="-10155.750000000004" y="-16766.88" width="95" height="150" as="geometry" />
        </mxCell>
        <mxCell id="qTfw3yNx1sF0ID5Y9VNr-87" value="&lt;font size=&quot;1&quot; style=&quot;&quot;&gt;&lt;b style=&quot;font-size: 80px;&quot;&gt;$$w_{n-1}$$&lt;/b&gt;&lt;/font&gt;" style="text;html=1;strokeColor=none;fillColor=none;align=center;verticalAlign=middle;whiteSpace=wrap;rounded=0;strokeWidth=5;" vertex="1" parent="1">
          <mxGeometry x="-10165.750000000004" y="-16450" width="95" height="150" as="geometry" />
        </mxCell>
        <mxCell id="qTfw3yNx1sF0ID5Y9VNr-88" value="&lt;font size=&quot;1&quot; style=&quot;&quot;&gt;&lt;b style=&quot;font-size: 80px;&quot;&gt;$$w_{n}$$&lt;/b&gt;&lt;/font&gt;" style="text;html=1;strokeColor=none;fillColor=none;align=center;verticalAlign=middle;whiteSpace=wrap;rounded=0;strokeWidth=5;" vertex="1" parent="1">
          <mxGeometry x="-10155.750000000004" y="-16240" width="95" height="150" as="geometry" />
        </mxCell>
      </root>
    </mxGraphModel>
  </diagram>
</mxfile>
